<svg xmlns="http://www.w3.org/2000/svg" height="1024" preserveAspectRatio="none" style="display: block;" version="1.1" viewBox="0 0 2048 2048" width="1024">
<path d="M 0 0 L 2048 0 L 2048 2048 L 0 2048 L 0 0 z" fill="rgb(255,255,255)" transform="translate(0,0)"></path>
<path d="M 855.88 1105.2 C 878.872 1104.05 888.047 1115.71 905.931 1127.89 L 979.267 1178.67 L 1218.57 1346.48 C 1245 1364.8 1270.88 1384.1 1297.8 1401.53 C 1315.42 1370.85 1339.22 1347.19 1369.58 1329.12 C 1556.42 1217.92 1769.45 1425.22 1657.72 1616.43 C 1643.17 1638.69 1630.62 1653.51 1609.66 1670.31 C 1566.19 1705.42 1510.47 1721.65 1454.95 1715.39 C 1398.12 1708.83 1346.31 1679.69 1311.18 1634.53 C 1275.27 1588.93 1264.68 1533.97 1271.35 1477.41 C 1240.84 1457.49 1210.34 1435.28 1180.4 1414.37 L 990.573 1280.95 L 880.946 1204.63 C 864.254 1192.89 845.758 1181 830.473 1168.13 C 819.694 1156.78 820.021 1134.56 828.432 1122.27 C 835.714 1111.63 844.129 1107.75 855.88 1105.2 z" fill="#1A2332" transform="translate(0,0)"></path>
<path d="M 1467.05 1376.6 C 1539.08 1370.64 1602.3 1424.22 1608.23 1496.25 C 1614.16 1568.28 1560.56 1631.48 1488.52 1637.38 C 1416.53 1643.27 1353.39 1589.71 1347.46 1517.72 C 1341.53 1445.73 1395.07 1382.56 1467.05 1376.6 z" fill="rgb(255,255,255)" transform="translate(0,0)"></path>
<path d="M 1357.83 332.423 C 1369.59 331.738 1381.38 331.913 1393.11 332.948 C 1445.58 337.843 1499.45 366.595 1532.73 407.285 C 1568.75 450.934 1585.99 507.082 1580.67 563.421 C 1574.94 619.442 1547.31 667.417 1503.86 702.815 C 1461.91 737.287 1407.86 753.426 1353.88 747.594 C 1287.28 740.725 1243.56 712.388 1202.3 661.565 C 1193.52 668.671 1184.99 676.099 1176.57 683.611 C 1122.04 732.216 1065.39 778.956 1011.07 827.698 C 976.081 860.851 935.783 890.942 900.039 923.489 C 888.9 933.631 874.528 947.364 858.58 946.949 C 848.142 946.621 838.311 941.969 831.44 934.105 C 824.433 926.006 820.953 915.443 821.774 904.765 C 822.21 899.138 824.542 889.769 828.53 885.782 C 858.227 856.088 892.443 829.199 923.875 801.386 L 1167.96 586.716 C 1165.71 575.875 1163.83 565.941 1162.97 554.865 C 1158.95 500.737 1176.35 447.196 1211.41 405.762 C 1248.45 362.727 1301.18 336.315 1357.83 332.423 z" fill="#1A2332" transform="translate(0,0)"></path>
<path d="M 1356.37 412.872 C 1426.51 404.184 1490.45 453.898 1499.31 524.012 C 1508.17 594.126 1458.62 658.188 1388.53 667.226 C 1318.19 676.297 1253.85 626.529 1244.95 556.167 C 1236.06 485.804 1285.99 421.591 1356.37 412.872 z" fill="rgb(255,255,255)" transform="translate(0,0)"></path>
<path d="M 589.92 793.179 C 591.029 793.094 592.139 793.021 593.249 792.959 C 605.04 792.282 616.856 794.831 625.732 803.067 C 633.422 810.225 637.88 820.197 638.085 830.701 C 638.15 835.753 636.295 846.255 633.278 850.003 C 623.237 862.479 608.17 875.911 596.526 887.044 L 539.235 941.521 C 524.248 955.606 508.331 969.936 494.252 984.798 C 544.027 984.153 595.6 985.15 645.549 985.207 L 953.576 985.404 L 1108.2 985.247 C 1133.03 985.23 1158.17 984.735 1182.9 985.703 C 1202.37 986.465 1219.48 1005.59 1219.53 1024.79 C 1219.57 1042.86 1203.89 1061.92 1185.44 1063.3 C 1171.57 1064.34 1156.99 1063.93 1143.13 1063.95 L 1059.72 1063.94 L 796.539 1063.94 L 492.379 1063.11 C 503.802 1074.77 518.39 1087.76 530.414 1099.1 L 587.37 1152.9 C 598.717 1163.41 617.593 1179.88 627.482 1190.54 C 630.642 1193.89 633.197 1197.76 635.034 1201.98 C 639.262 1211.71 639.08 1222.92 635.034 1232.68 C 630.905 1242.68 622.84 1250.54 612.736 1254.41 C 593.331 1261.84 578.466 1254.32 565.221 1240.8 C 556.378 1231.77 546.23 1222.74 537.021 1213.98 C 504.536 1183.23 472.252 1152.26 440.169 1121.09 C 420.285 1102.01 388.341 1074 370.42 1054.11 C 366.177 1049.44 363.023 1043.88 361.186 1037.85 C 354.568 1016.59 362.845 1001.26 378.223 987.512 C 387.614 979.12 397.208 969.648 406.286 960.898 C 437.143 931.016 468.16 901.299 499.337 871.751 C 523.421 848.711 547.321 824.5 572.112 802.103 C 578.036 796.751 582.307 795.088 589.92 793.179 z" fill="#1A2332" transform="translate(0,0)"></path>
<metadata><recraft-signature>{"signed_by": "recraft", "signature_b64": "LjdbZ3c27FGrVKMfJ3whCKfDHhW98k0Ea+Z7wcJZuwqKSpTjmGLqRJE6/OBHmVI52qlHJfmX4jddv8UD7S1mDw==", "signing_algo": "Ed25519", "generation_timestamp": 1777191867, "identifier": "5a7dbc0b-f08d-4a5e-9ea5-ce78e231f413"}</recraft-signature></metadata></svg>