<svg xmlns="http://www.w3.org/2000/svg" height="1024" preserveAspectRatio="none" style="display: block;" version="1.1" viewBox="0 0 2048 2048" width="1024">
<path d="M 0 0 L 2048 0 L 2048 2048 L 0 2048 L 0 0 z" fill="rgb(255,255,255)" transform="translate(0,0)"></path>
<path d="M 996.543 415.426 C 1000.86 415.193 1005.18 415.084 1009.5 415.1 C 1135.52 414.52 1256.56 464.311 1345.69 553.403 C 1376.43 584.15 1392.16 608.517 1416.5 643.798 L 1471.38 723.528 C 1506.38 773.214 1540.45 823.55 1573.57 874.511 C 1602.68 919.051 1622.88 945.501 1643.28 995.56 C 1666.25 1051.98 1677.87 1112.37 1677.47 1173.29 C 1677.87 1295.58 1629.66 1413.03 1543.43 1499.76 C 1510.34 1533.12 1471.99 1560.83 1429.92 1581.76 C 1376.35 1609.67 1317.63 1626.31 1257.38 1630.64 C 1231.22 1632.39 1202.82 1631.85 1176.39 1631.86 L 1055.5 1631.96 L 886.933 1632 C 851.772 1631.99 813.449 1633.33 778.58 1629.91 C 552.641 1607.76 384.406 1423.2 372.452 1198.37 C 368.052 1116.3 385.125 1034.5 421.987 961.043 C 436.716 931.918 459.863 895.451 477.259 867.057 L 555.946 738.598 C 591.642 681.328 621.142 621.086 666.481 571.066 C 754.653 473.793 866.265 422.399 996.543 415.426 z" fill="#1A2332" transform="translate(0,0)"></path>
<path d="M 1184 1150.61 C 1192.83 1154.57 1471.81 1435.56 1494.11 1458.65 C 1429.79 1520.1 1351.11 1557.79 1262.12 1565.54 C 1239.16 1567.54 1217.33 1567.02 1194.32 1566.97 L 1101.32 1566.81 L 839.5 1566.96 C 828.658 1566.98 817.575 1567.11 806.753 1566.87 C 707.662 1563.76 613.857 1521.44 545.942 1449.22 C 564.411 1431.84 583.731 1411.85 601.785 1393.76 L 703.297 1291.59 C 746.466 1248.05 793.856 1203.18 835.844 1159.11 C 853.941 1173.24 871.685 1177.87 894.291 1177.79 C 944.41 1177.61 994.113 1178.17 1044.31 1177.86 C 1073.35 1177.68 1110.54 1179.53 1138.86 1175.55 C 1154.67 1173.33 1172.48 1161.77 1184 1150.61 z" fill="rgb(255,255,255)" transform="translate(0,0)"></path>
<path d="M 1033.67 480.265 C 1090.51 482.368 1150.41 500.044 1200.52 526.619 C 1239.41 546.817 1274.58 573.491 1304.52 605.499 C 1331.45 634.198 1344.39 654.665 1366.86 687.273 L 1429.4 778.136 C 1460.13 821.833 1490.31 865.911 1519.95 910.359 C 1533.57 930.533 1549.23 950.727 1561.1 971.772 C 1575.72 998.139 1587.55 1025.96 1596.4 1054.77 C 1627.97 1157.22 1617.29 1268.03 1566.73 1362.55 C 1557.32 1380.06 1547.92 1393.72 1536.76 1410.2 L 1305.25 1179.34 C 1275.29 1149.37 1243.43 1119.41 1214.2 1088.89 C 1214.82 1052.63 1202.94 1039.96 1184.36 1010.24 L 1142.42 943.384 L 1099.1 873.531 C 1079.3 841.609 1071.54 823.031 1034.07 808.887 C 1032.8 761.064 1033.92 710.615 1033.97 662.568 L 1033.67 480.265 z" fill="rgb(255,255,255)" transform="translate(0,0)"></path>
<path d="M 1410.27 972.156 C 1428.66 971.092 1437.54 973.568 1450.31 987.076 C 1444.69 991.22 1443.09 993.013 1438.38 998.085 C 1423.98 979.915 1398.36 983.252 1392.87 1004.57 C 1390.96 1012.23 1392.23 1020.34 1396.39 1027.06 C 1405.15 1041.09 1420.45 1041.54 1433.25 1032.66 C 1434.91 1030.8 1436.59 1028.61 1438.17 1026.66 C 1442.55 1029.86 1446.68 1032 1451.41 1034.62 C 1445.84 1042.78 1439.07 1048.61 1429.51 1051.74 C 1418.55 1055.24 1406.63 1054.05 1396.58 1048.44 C 1364.14 1030.46 1369 980.684 1410.27 972.156 z" fill="#1A2332" transform="translate(0,0)"></path>
<path d="M 963.65 483.371 C 967.708 482.877 965.961 482.478 969.241 483.832 C 971.946 489.842 970.192 508.158 970.214 516.014 L 970.456 599.326 L 970.737 809.139 C 932.449 823.839 926.068 841.326 906.146 874.328 C 891.009 899.341 876.078 924.478 861.355 949.736 L 825.927 1009.02 C 802.88 1047.6 790.248 1060.6 798.641 1106.93 C 789.149 1115.17 776.654 1128.38 767.694 1137.38 L 715.81 1189.49 L 562.129 1342.65 C 543.364 1361.18 524.261 1381.57 505.273 1399.41 C 498.062 1388.48 491.077 1375.98 484.5 1364.61 C 460.636 1318.99 447.877 1281.41 440.568 1230 C 429.361 1147.01 443.293 1062.56 480.564 987.559 C 491.991 964.564 507.599 940.897 521.207 918.873 L 583.452 817.139 L 641.779 720.852 C 657.974 693.888 675.024 663.243 694.095 638.662 C 762.128 550.974 854.693 498.853 963.65 483.371 z" fill="rgb(255,255,255)" transform="translate(0,0)"></path>
<path d="M 587.574 974.005 L 603.517 973.946 C 615.633 998.859 626.537 1025.47 639.068 1051.18 L 621.231 1051.28 C 617.2 1039.71 618.196 1034.66 605.02 1035.24 C 595.357 1035.16 585.693 1035.12 576.03 1035.13 L 568.791 1051.36 C 563.581 1051.44 557.939 1051.27 552.693 1051.21 C 564.319 1025.64 575.525 999.284 587.574 974.005 z" fill="#1A2332" transform="translate(0,0)"></path>
<path d="M 595.256 989.658 C 597.452 991.838 607.536 1016.69 609.452 1021.19 L 594.75 1021.17 L 581.727 1021.1 C 585.538 1011.34 590.725 998.957 595.256 989.658 z" fill="rgb(255,255,255)" transform="translate(0,0)"></path>
<path d="M 996.637 868.121 C 1004.38 867.24 1018.85 868.99 1023.42 875.265 C 1042.37 901.287 1060.14 932.917 1077.06 959.968 L 1124.33 1035.27 C 1132.22 1047.89 1140.37 1060.48 1147.74 1073.38 C 1152.09 1080.99 1150.33 1092.39 1145.46 1099.36 C 1141.93 1104.47 1133.91 1110.73 1127.59 1111.77 C 1113.8 1114.05 1097.76 1113.18 1083.73 1113.15 L 1015.5 1113 L 928.426 1113.1 C 916.861 1113.16 886.526 1115.15 876.49 1110.88 C 862.786 1105.03 856.696 1084.41 865.14 1070.38 C 873.294 1056.84 881.913 1041.85 890.222 1027.81 L 939.259 945.411 L 964.472 903.218 C 973.569 887.888 978.475 873.839 996.637 868.121 z" fill="rgb(255,255,255)" transform="translate(0,0)"></path>
<path d="M 974.682 977.161 C 990.509 977.046 1023.72 973.446 1035.55 985.156 C 1039.19 988.757 1039.29 995.411 1038.85 1000.2 C 1038.28 1006.64 1034.07 1009.75 1029.32 1013.62 C 1041.14 1020.45 1044.62 1027.47 1041.25 1040.55 C 1029.74 1058.3 994.153 1053.26 974.596 1053.16 C 974.813 1027.83 974.841 1002.49 974.682 977.161 z" fill="#1A2332" transform="translate(0,0)"></path>
<path d="M 989.569 1021.95 C 1001.97 1022.19 1033.34 1015.59 1024.11 1036.49 C 1014.04 1040.26 1000.78 1039.17 989.745 1039.11 L 989.569 1021.95 z" fill="rgb(255,255,255)" transform="translate(0,0)"></path>
<path d="M 989.417 991.183 C 999.368 991.049 1018.52 988.115 1023.65 996.922 C 1023.89 1001.12 1023.32 1001.63 1021.33 1005.56 C 1013.6 1009.6 998.851 1008.19 989.572 1008 C 989.395 1002.55 989.454 996.673 989.417 991.183 z" fill="rgb(255,255,255)" transform="translate(0,0)"></path>
<metadata><recraft-signature>{"signed_by": "recraft", "signature_b64": "943UJqHXXwe9mItGkgXCSCoIVnyqnsbFKD6gpp9aexJ47HJeT41/Hb65MwrLfmWzM+sz2KqeAUrsBL3trLBOAg==", "signing_algo": "Ed25519", "generation_timestamp": 1777191921, "identifier": "8fdc0805-239a-4d76-8375-803894738f46"}</recraft-signature></metadata></svg>