<svg xmlns="http://www.w3.org/2000/svg" height="1024" preserveAspectRatio="none" style="display: block;" version="1.1" viewBox="0 0 2048 2048" width="1024">
<path d="M 0 0 L 2048 0 L 2048 2048 L 0 2048 L 0 0 z" fill="rgb(255,255,255)" transform="translate(0,0)"></path>
<path d="M 1014.99 383.388 C 1048.74 379.8 1084.46 392.54 1107.86 416.782 C 1125.46 435.023 1141.76 465.322 1155.16 487.138 L 1211.57 578.626 L 1397.67 880.883 L 1658.07 1302.9 L 1736.43 1430.47 C 1764.09 1475.55 1794.95 1510.35 1787.09 1566.55 C 1778.1 1630.77 1725.54 1666.99 1662.55 1665.05 C 1647.47 1664.58 1630.82 1665.01 1615.62 1664.96 L 1489.51 1664.66 L 1034.25 1664.37 L 555.871 1664.67 L 429.096 1664.64 C 406.352 1664.72 376.97 1666.59 354.962 1663.48 C 277.962 1652.62 233.459 1565.19 270.149 1496.47 C 280.101 1477.83 292.578 1459.27 303.871 1441.27 L 368.745 1337.79 L 612.385 944.506 L 834.497 583.113 C 846.193 564.13 857.331 544.937 868.947 525.988 C 876.726 513.138 886.266 500.549 893.768 487.635 C 925.241 433.458 945.104 390.372 1014.99 383.388 z" fill="#1A2332" transform="translate(0,0)"></path>
<path d="M 1017.26 449.305 C 1018.74 449.211 1020.22 449.137 1021.7 449.082 C 1058.98 447.758 1069.49 473.456 1086.2 500.369 L 1121.38 557.792 L 1238.55 748.381 L 1528.71 1220.04 C 1577.57 1297.91 1625.61 1376.28 1672.84 1455.15 C 1685.91 1476.8 1699.38 1497.84 1712.96 1519.52 C 1725.86 1540.12 1727.75 1565.72 1708.84 1583.63 C 1701.7 1590.4 1688.99 1596.32 1679.12 1597.02 C 1656.87 1598.6 1633.98 1597.98 1611.59 1597.99 L 1486.86 1598.17 L 1027.75 1598.5 L 578.566 1598.41 L 443.951 1598.47 C 419.441 1598.58 394.33 1599.08 369.869 1598.55 C 360.16 1598.32 353.102 1595.09 344.834 1590.58 C 325.64 1580.11 316.419 1548.19 327.438 1529.01 C 338.121 1510.42 351.465 1490.48 363.248 1471.62 L 428.706 1366.36 L 607.912 1077.88 L 859.276 669.18 L 944.846 529.443 C 956.192 511.164 967.499 492.001 979.253 474.041 C 988.529 459.869 1000.62 452.397 1017.26 449.305 z" fill="rgb(255,255,255)" transform="translate(0,0)"></path>
<path d="M 1021.12 593.115 C 1048.23 592.15 1054.35 613.754 1066.87 633.838 C 1087.45 666.236 1107.52 698.955 1127.07 731.985 C 1189.34 832.707 1250.58 934.056 1310.8 1036.02 C 1321.51 1053.8 1332.98 1071.3 1343.77 1089.07 L 1543.16 1419.21 C 1555.51 1440.11 1568.38 1460.72 1581.09 1481.4 C 1589.9 1495.74 1591.62 1513.43 1579.13 1526.35 C 1574.29 1531.42 1567.88 1534.69 1560.94 1535.63 C 1550.99 1536.89 1519.66 1536.12 1508 1536.09 L 1403.29 1535.97 L 1031.5 1536.01 L 669.199 1535.95 L 553.649 1536.13 C 532.438 1536.18 511.2 1536.38 490.029 1535.99 C 476.513 1535.74 466.71 1527.06 463.494 1514.16 C 460.989 1504.11 462.417 1499.5 466.931 1490.6 C 472.318 1479.98 479.151 1469.96 485.356 1459.81 L 515.213 1409.9 L 632.442 1213.36 L 995.134 613.216 C 1002.82 600.398 1006.84 596.698 1021.12 593.115 z" fill="#1A2332" transform="translate(0,0)"></path>
<path d="M 1025.2 693.811 C 1044.78 720.676 1064.75 757.576 1082.62 786.098 C 1136.22 872.603 1189.09 959.561 1241.22 1046.96 C 1298.87 1141.07 1355.85 1235.58 1412.16 1330.5 C 1439.92 1376.3 1470.91 1423.5 1496.93 1469.96 C 1446.02 1471.03 1391.47 1470.13 1340.31 1470.16 L 1027.5 1470.47 L 556.823 1470.27 C 561.044 1461.65 569.718 1447.6 574.711 1438.98 C 589.036 1414.36 603.556 1389.86 618.271 1365.47 L 747.837 1149.92 L 926.096 853.994 C 957.273 802.663 992.135 742.96 1025.2 693.811 z" fill="rgb(255,255,255)" transform="translate(0,0)"></path>
<path d="M 1018.84 1190.23 C 1020.06 1190.14 1021.29 1190.06 1022.52 1190 C 1062.8 1188.06 1058.54 1230.32 1058.06 1257.34 C 1057.8 1272.16 1057.98 1287.22 1057.97 1302.05 C 1112.99 1296.53 1115.4 1337.03 1085.27 1370.5 C 1066.76 1391.07 1063.22 1419.32 1031.23 1426.91 C 1028.71 1427 1026.18 1427.05 1023.66 1427.06 C 993.894 1427.14 977.737 1383.28 959.385 1362.04 C 931.054 1329.27 945.389 1297.26 992.063 1301.67 C 992.079 1283.11 991.973 1264.55 991.744 1245.99 C 991.547 1221.37 988.636 1197.65 1018.84 1190.23 z" fill="#1A2332" transform="translate(0,0)"></path>
<path d="M 1020.99 830.218 C 1065.07 828.264 1058.01 870.103 1058.04 899.9 L 1058.07 978.488 L 1058.06 1083.27 C 1058.05 1102.18 1058.32 1121.67 1057.49 1140.55 C 1057.28 1145.28 1055.11 1150.24 1052.29 1154.04 C 1045.78 1162.85 1039.12 1166.01 1028.79 1167.72 C 1014 1168.86 993.968 1160.69 992.603 1143.95 C 991.094 1125.43 991.951 1104.94 991.971 1086.15 L 992.115 987.517 L 992.099 903.076 C 992.091 887.777 991.825 872.033 992.617 856.762 C 992.853 852.203 994.781 847.711 997.455 844.001 C 1003.68 835.371 1010.9 831.953 1020.99 830.218 z" fill="#1A2332" transform="translate(0,0)"></path>
<metadata><recraft-signature>{"signed_by": "recraft", "signature_b64": "Amo0s1QoqGr+gTg/U3s/UuF1E6qDfY/SZHPs3Gxg2/SsAP0ZRNGZwF3UU91I6D0T+EZKy4jT0L7mupi1Nr9eDw==", "signing_algo": "Ed25519", "generation_timestamp": 1777191931, "identifier": "4dfb9807-af7e-4c53-bab0-73925eb034da"}</recraft-signature></metadata></svg>