<svg xmlns="http://www.w3.org/2000/svg" height="1024" preserveAspectRatio="none" style="display: block;" version="1.1" viewBox="0 0 2048 2048" width="1024">
<path d="M 0 0 L 2048 0 L 2048 2048 L 0 2048 L 0 0 z" fill="rgb(255,255,255)" transform="translate(0,0)"></path>
<path d="M 856.622 301.426 C 865.193 300.739 880.295 301.095 889.164 301.083 L 947.705 301.048 L 1137.04 301.45 L 1283.71 301.16 C 1308.28 301.148 1334.16 300.477 1358.55 302.093 C 1364.96 302.517 1370.66 305.893 1375.63 309.918 C 1384.03 316.619 1389.23 326.526 1389.98 337.239 C 1390.69 348.544 1386.62 359.626 1378.76 367.784 C 1366.05 381.127 1344.93 378.153 1327.9 378.17 L 1269.25 378.213 L 1063.77 377.929 C 1062.67 394.206 1063.19 417.123 1063.22 433.814 L 1063.87 533.884 L 1115.45 533.153 C 1147.23 532.787 1169.74 536.299 1193.45 559.317 C 1223.05 588.056 1218.16 626.455 1218.09 663.518 C 1218.03 686.281 1218.14 709.043 1218.43 731.804 C 1251.16 749.241 1277.28 765.251 1304.39 790.754 C 1360.88 843.894 1399.26 927.56 1398.87 1005.58 C 1398.67 1045.9 1395.06 1093.07 1393.32 1134.52 L 1379.28 1435.25 L 1372.04 1592.17 C 1370.83 1618.95 1370.91 1648.76 1366.97 1675.16 C 1364.62 1690.87 1353.51 1708.77 1342.37 1719.99 C 1330.28 1732.19 1315 1740.74 1298.28 1744.65 C 1280.76 1748.79 1238.5 1747.41 1218.72 1747.37 L 1111.75 1747.43 L 882.639 1747.61 C 855.026 1747.62 768.014 1750.14 746.509 1743.64 C 722.068 1736.2 701.56 1719.4 689.457 1696.9 C 677.379 1674.36 677.882 1652.39 676.56 1627.54 C 675.559 1608.72 674.633 1589.88 673.653 1571.05 L 663.894 1344.98 L 652.468 1102.69 C 651.331 1072.83 648.313 1031.3 649.053 1002.52 C 649.918 975.899 654.269 949.508 661.995 924.02 C 690.597 831.416 745.949 775.76 830.068 731.493 L 829.877 661.405 C 829.806 626.435 825.279 589.424 851.074 562.493 C 878.998 533.34 901.644 533.226 937.881 533.688 C 953.377 534.005 968.879 533.806 984.362 533.091 L 984.907 378.152 L 912.107 378.029 C 855.995 377.955 811.618 374.972 764.289 412.365 C 757.857 417.491 751.761 423.027 746.041 428.937 C 736.099 439.307 722.532 458.841 707.739 461.09 C 696.977 462.726 684.194 460.034 675.382 453.093 C 667.113 446.548 661.973 436.83 661.216 426.311 C 659.906 409.288 669.601 397.59 680.289 385.663 C 728.273 332.119 785.636 305.856 856.622 301.426 z" fill="#1A2332" transform="translate(0,0)"></path>
<path d="M 869.443 798.05 C 930.642 798.676 991.844 798.929 1053.05 798.812 C 1080.7 798.41 1108.36 798.154 1136.02 798.042 C 1142.9 797.974 1177.1 796.995 1181.36 798.793 C 1257.72 830.616 1318.84 914.943 1321.2 998.328 C 1322.17 1032.45 1319.15 1072.31 1317.46 1106.96 L 1310.12 1268.2 C 1305.65 1350.13 1301.66 1432.09 1298.13 1514.07 C 1296.08 1557.86 1294.39 1601.82 1291.96 1645.59 C 1291.7 1650.25 1290.8 1662.66 1287.46 1665.41 C 1285.36 1667.42 1282.26 1669.94 1279.23 1670.3 C 1267.39 1671.7 1254.55 1671.03 1242.62 1671.05 L 1176.9 1671.44 L 925.415 1671.33 C 891.026 1671.66 856.636 1671.81 822.246 1671.78 C 805.537 1671.69 788.246 1671.72 771.553 1670.83 C 764.267 1670.44 761.416 1666.41 756.999 1661.11 C 754.839 1652.24 753.921 1620.61 753.409 1609.97 L 748.349 1493.31 C 742.253 1377.11 736.033 1257.32 731.708 1141.2 L 727.824 1052.75 C 727.362 1042.2 727.034 1031.59 726.474 1021.07 C 723.516 965.508 744.334 909.929 778.691 866.728 C 802.105 837.288 835.398 813.863 869.443 798.05 z" fill="rgb(255,255,255)" transform="translate(0,0)"></path>
<path d="M 913.466 612.112 C 926.708 610.979 1129.21 610.876 1135.15 612.818 C 1137.86 613.704 1140.51 616.773 1141.43 619.404 C 1142.64 622.895 1142.97 708.177 1142.4 716.67 C 1142.3 718.247 1142.06 719.575 1141.12 720.886 C 1140.23 722.113 1137.7 721.819 1136.25 721.933 L 906.332 722.179 C 905.579 689.758 906.619 656.119 906.633 623.624 C 906.636 617.18 908.852 615.987 913.466 612.112 z" fill="rgb(255,255,255)" transform="translate(0,0)"></path>
<metadata><recraft-signature>{"signed_by": "recraft", "signature_b64": "TsWQ7Sd6GkCwvybbit+/NR/3PEpOQmp7XhHfxnMjx64Lxw8oX8JJP3155jq2e6dZ/c76NYMsFwQ5CrEgPXE1Cw==", "signing_algo": "Ed25519", "generation_timestamp": 1777190137, "identifier": "3c73c15c-c97c-43b4-bb9c-34e5d78272cb"}</recraft-signature></metadata></svg>